<?xml version="1.0" encoding="utf-8"?>
<!-- Generator: Adobe Illustrator 15.1.0, SVG Export Plug-In . SVG Version: 6.00 Build 0)  -->
<!DOCTYPE svg PUBLIC "-//W3C//DTD SVG 1.1//EN" "http://www.w3.org/Graphics/SVG/1.1/DTD/svg11.dtd">
<svg version="1.1" xmlns="http://www.w3.org/2000/svg" xmlns:xlink="http://www.w3.org/1999/xlink" x="0px" y="0px" width="205px"
	 height="158px" viewBox="0 0 205 158" enable-background="new 0 0 205 158" xml:space="preserve">
<g id="Layer_1">
	<g id="nUvpY5_1_">
		<g id="XMLID_2_">
			<g>
				<path d="M202.04,27.84c0.3-0.02,0.58-0.02,0.72,0.12c-0.649,0.62-2.45,0.51-3.6,0.96c-1.271,0.14-2.79,0.63-3.96,0.48
					c-2.55,0.75-5.78,0.86-8.4,1.8c-1.47-0.07-2.28,0.52-3.72,0.48c-5.51,1.45-12.19,2.45-17.4,4.56c-0.72-0.08-0.92,0.36-1.68,0.24
					c-5.03,1.99-10.92,3.67-15.84,6.12c-4.46,1.38-8.021,3.66-12.24,5.28c-2.09,1.43-4.87,2.17-6.72,3.84
					c-7.22,3.5-13.45,7.99-19.8,12.36c-1.83,1.57-3.71,3.09-5.761,4.44c-1.46,1.14-2.479,2.72-4.319,3.48
					c-4.22,3.67-7.85,7.91-11.28,12.36c-0.15,0.6-0.07,1.449-1.08,1.199c-0.12-1,0.87-1.819,1.08-2.88
					c6.03-8.17,14.38-14.02,22.2-20.4c4.08-2.44,7.75-5.29,12-7.56c0.24-0.24,0.479-0.48,0.72-0.72c1.18-0.54,2.44-1,3.24-1.92
					c1.51-0.09,1.859-1.34,3.359-1.44c2.021-1.45,4.58-2.17,6.721-3.72c1.46-0.14,2.109-1.09,3.479-1.32
					c2.351-1.74,5.351-2.22,7.92-3.84c7.03-2.13,12.48-5.11,20.16-6.6c3.641-1.35,7.25-2.25,11.641-3
					c4.239-1.16,9.149-2.11,14.76-2.88c1.189-0.42,1.75-0.13,2.88-0.72C198.92,28.48,200.57,28.25,202.04,27.84z"/>
				<path d="M192.2,55.8c0.08,0,0.16,0,0.24,0c-1.53,0.59-3.23,0.79-4.801,0.6c-0.159,0.44-1.109,0.09-1.319,0.48
					c-3.91-0.09-7.181,0.97-11.28,1.08c-2.97,0.62-5.76,1.04-9.24,1.32c-2.93,0.52-6.03,1.15-9,1.92c-0.75,0.19-1.59,0.06-2.28,0.24
					c-0.159,0.04-0.59,0.44-0.72,0.48c-0.92,0.25-1.95,0.12-2.88,0.36c-3.02,0.78-6.12,1.58-9,2.4c-1.939,0.55-4.6,1.46-6.479,2.16
					c-0.061,0.02-0.29-0.19-0.48-0.12c-0.03,0.01-0.16,0.34-0.24,0.36c-0.609,0.18-1.33,0.16-1.92,0.36
					c-0.51,0.18-0.93,0.57-1.439,0.72C130.24,68.49,129.1,68.6,128,69c-5.32,1.95-10.48,4.12-15.72,6.48
					c-0.17,0.149-0.181,0.46-0.36,0.6c-4.54,1.78-8.31,4.33-12.36,6.6c-0.319,0.08-0.439,0.36-0.6,0.601
					c-1.74,0.66-3.04,1.76-4.32,2.88c-1.67,0.07-2.23,2.84-3.84,1.8c0.3-1.28,2.1-2.05,3.12-3c1.33-0.79,2.7-1.54,3.84-2.52
					c4.63-2.381,9.101-5.33,14.16-7.44c3.061-2.06,7.18-3.06,10.561-4.8c2.97-0.92,5.439-1.61,8.039-2.88
					c2.19-0.53,4.36-1.07,6.12-2.04c7.88-1.65,16-4.49,24.12-5.4c0.45,0.13,0.19-0.45,0.601-0.36c3.39-0.37,7.029-1.58,10.439-1.32
					c6.271-1.33,13.34-1.64,20.04-2.4c0.141,0.02,0.21-0.03,0.24-0.12C192.18,55.66,192.19,55.73,192.2,55.8z"/>
				<path d="M189.8,57.72c0,0.12-0.149,0.09-0.24,0.12C189.56,57.72,189.71,57.75,189.8,57.72z"/>
				<path d="M163.16,57C163.39,56.54,163.2,57.73,163.16,57L163.16,57z"/>
				<path d="M110.38,104.2c-0.43-0.141-0.7-0.46-1.1-0.641c-0.141-0.779-0.15-1.689-0.24-2.52c-1.62,1.62-3.43,3.05-4.8,4.92
					c-0.26-0.26-0.49,0.12-0.96,0c0-0.16-0.21-0.11-0.24-0.24c-0.54,0.021-0.2-0.84-0.6-0.96c0.119-3.64,1.1-6.42,1.68-9.6
					c-2.04,2.2-3.17,6.35-4.92,9.24c-0.03,0.85-0.21,1.55-0.96,1.68c-1.75-0.34-0.59-3.021-0.72-4.561
					c0.26-1.659,0.47-3.369,0.6-5.159c0.27-0.61,0.48-1.28,0.48-2.16c-2.07,3.33-3.41,7.39-4.68,11.52
					c-0.83,0.82-0.85,3.061-2.28,2.88c-1.13-1.38,0.1-4.21,0.36-5.76c0.04-2.359,0.75-4.05,0.84-6.359
					c0.75-1.811,0.62-4.5,1.92-5.761c0.66,0.311,0.36,1.9,0,2.28c-0.61,4.11-1.56,7.88-2.04,12.12c-0.04,0-0.08,0-0.12,0
					c-0.02,0.3,0.15,0.2,0.12,0c1.3-2.42,2.14-5.3,3.36-7.8c0.46-1.42,1.17-2.59,1.8-3.84c0.75-0.971,0.97-3.101,2.28-3.12
					c0.81,0.3-0.04,1.59,0,2.279c-0.19,0.851-0.24,1.841-0.601,2.521c0,0.32,0,0.64,0,0.96c-0.66,2.02-0.7,4.66-0.959,7.08
					c0.55-0.73,0.82-1.74,1.44-2.4c0.05-0.59,0.46-0.819,0.479-1.439c1.04-1.44,1.721-3.24,2.761-4.681
					c1.08-1.399,1.43-3.529,3.239-4.199c-0.569,4.029-1.949,7.25-2.64,11.159c0.08,1.13-0.51,2.07-0.12,3.12
					c2.09-1.31,3.34-3.46,5.28-4.92c1.79-4.17,3.06-8.859,5.88-12c0.59-0.01,1.12-0.58,1.68-0.24c0.24,2-1.199,3.36-1.56,5.16
					c0.64,1.92,0.74,4.38,2.04,5.641c5.83,4.76,15.6,0.97,21.6-0.721c2.71-1.13,5.15-2.529,7.681-3.84
					c1.96-1.479,3.939-2.939,6.12-4.2c0.319-0.68,1.039-0.96,1.199-1.8c0.82,0.41,0.181,1.53-0.479,1.8
					c-0.38,0.74-1.4,0.841-1.681,1.681c-4.38,2.81-8.92,6.5-14.039,7.8c-2.771,1.32-6.54,1.97-9.48,2.76
					c-2.7,0.28-5.49,0.21-8.16-0.36c-1.649-0.71-2.93-1.789-4.2-2.88c-0.63-1.13-1.22-2.3-1.319-3.96
					c-1.11,3.29-0.83,7.971-3.601,9.601C110.59,104.27,110.48,104.24,110.38,104.2z M137.12,98.76c0.09-0.029,0.24,0,0.24-0.12
					C137.27,98.67,137.12,98.64,137.12,98.76z M135.56,99.24c0.301,0.189,0.351-0.41,0.12-0.36c-0.01,0.07-0.02,0.14-0.12,0.12
					C135.56,99.08,135.56,99.16,135.56,99.24z"/>
				<path d="M150.2,43.2C150.19,43.06,150.38,43.13,150.2,43.2L150.2,43.2z"/>
				<path d="M150.2,43.2C150.21,43.35,150.03,43.27,150.2,43.2L150.2,43.2z"/>
				<path fill="#FFFFFF" d="M137.36,98.64c0,0.12-0.15,0.091-0.24,0.12C137.12,98.64,137.27,98.67,137.36,98.64z"/>
				<path d="M136.88,39.12C136.87,38.98,137.05,39.05,136.88,39.12L136.88,39.12z"/>
				<path d="M136.76,39.24c0.01-0.07,0.021-0.14,0.12-0.12C136.87,39.19,136.86,39.26,136.76,39.24z"/>
				<path d="M136.76,39.24C136.77,39.38,136.59,39.31,136.76,39.24L136.76,39.24z"/>
				<path d="M136.52,39.6C136.51,39.46,136.69,39.53,136.52,39.6L136.52,39.6z"/>
				<path d="M136.52,39.6C136.53,39.75,136.35,39.67,136.52,39.6L136.52,39.6z"/>
				<path fill="#FFFFFF" d="M135.68,98.88c0.23-0.05,0.181,0.55-0.12,0.36c0-0.08,0-0.16,0-0.24
					C135.66,99.02,135.67,98.95,135.68,98.88z"/>
				<path d="M135.44,39.96C135.94,39.85,135.46,40.32,135.44,39.96L135.44,39.96z"/>
				<path d="M135.32,39.84c0.069,0.01,0.14,0.02,0.12,0.12C135.37,39.95,135.3,39.94,135.32,39.84z"/>
				<path d="M135.32,39.84C135.17,39.85,135.25,39.67,135.32,39.84L135.32,39.84z"/>
				<path d="M135.08,39.48C135.22,39.01,135.22,39.95,135.08,39.48L135.08,39.48z"/>
				<path d="M129.68,45.48C129.83,45.47,129.75,45.65,129.68,45.48L129.68,45.48z"/>
				<path d="M129.68,45.48C129.54,45.49,129.61,45.31,129.68,45.48L129.68,45.48z"/>
				<path d="M104.24,75.36c0.24,0.04,0.319,0.239,0.479,0.359c-0.149,0.37-0.34,0.7-0.96,0.601c-1.97,1.029-3.83,2.17-5.76,3.239
					c-0.36,0.32-0.78,0.58-1.2,0.841c-0.75,0.609-1.17,1.55-2.16,1.92c-0.46,1.06-1.39,1.649-1.92,2.64
					c-0.54,0.06-0.84,0.36-1.56,0.24c-0.18-0.34-0.33-0.79-0.12-1.2c0.37-0.39,0.93-0.59,1.32-0.96
					C95.48,79.64,99.7,77.34,104.24,75.36z"/>
				<path d="M92.96,28.32C93.19,27.86,93,29.05,92.96,28.32L92.96,28.32z"/>
				<path d="M92.48,5.4c0.6-0.05,0.07,0.36,0.36,0.48C92.67,6.23,92.36,5.74,92.48,5.4z"/>
				<path fill="#FFFFFF" d="M92.72,105.12c0.03,0.2-0.14,0.3-0.12,0C92.64,105.12,92.68,105.12,92.72,105.12z"/>
				<path d="M90.56,91.32c0.94-0.7,2.94,0.06-1.56,1.989c-1.78,3.061-3.49,5.641-3.72,10.25c-0.51,1.41-0.37,3.471-1.08,4.681
					c-0.21-0.01-0.31,0.09-0.36,0.24c-1.93-1.16-0.07-4.32,0.24-5.881c0.15-2.409,0.02-4.699,0.24-6.72
					c-1.64,1.08-0.77,0.51-2.38,1.62c-1.25,0.81-2.27,2.65-2.69,2.75c0.02,2.31,0.56,2.39,1.37,4.25c0.05,0.57,0.63,2.5,1.26,3.75
					c-1.11-0.3-2.77-1.95-3.76-2.75c-1.28-1.05-1.97-1.53-2.37-1.88c-0.38,0.58-2.17,1.83-2.58,2.38c-1.88,0.69-5.29,3.54-5.55,2.75
					c1.82-2,1.63-1.75,2.57-3.37c1-1.439,1.44-2.71,1.87-3.76c-0.01-1.99-1.48-4.061-2.17-5.5c-0.32-0.32-0.36-0.65-0.57-1.08
					c-0.8,0.2-1.26,0.74-2.04,0.96c-1.03,1.01-1.28,2.79-1.56,4.56c-2.37,8.061-3.89,16.37-5.4,24.841
					c-0.89,5.31-1.21,10.119-0.48,15.96c0.25,0.909,0.51,1.81,0.84,2.64c0.97,1.51,2.32,2.64,3.72,3.72
					c1.12,0.24,2.14,0.58,3.24,0.84c4.55,0.33,6.65-1.72,9.84-3c2.3-1.5,4.39-3.21,6.12-5.279c-0.53,2.91-3.47,4.45-5.52,6.239
					c-3.93,2.12-9.16,4.131-14.04,2.16c-2.98-1.819-5-4.6-5.52-8.88c-1.01-9.25,1.53-16.59,2.52-24.6
					c1.29-5.95,2.63-11.851,4.2-17.521c-0.68,0.32-1.22,0.87-1.55,0.7c-2.1,1.25-3.57,2.101-5.41,3.62
					c-0.02,0.7-0.28,1.16-0.24,1.92c-1.52,4.5-4.23,7.96-7.08,10.92c-2.76,2.87-5.7,5.24-9.48,7.08
					c-5.03,1.61-10.43-0.13-14.28-2.04c-2.07-1.3-4.42-2.3-6-4.08c0.93-0.1,0.89,0.601,1.44,0.96c0.7,0.46,1.76,0.96,2.76,1.561
					c1.64,0.979,3.19,1.52,5.16,2.16c3.64,1.18,7.07,2.13,11.4,0.239c2.92-2,6.22-3.62,8.16-6.6c2.96-3,5.76-6.16,6.72-11.16
					c-0.35,0.35-2.79,1.81-3.12,0.12c0.76-0.72,1.99-0.97,3-1.44c0.28-0.6,0.56-1.199,0.6-2.04c-0.37-4.949-1.73-8.909-3.12-12.84
					c-4.5-10.97-11.33-19.63-18.6-27.84c-2.41-3.71-5.1-7.14-6.72-11.64c-0.15-1.01-0.34-1.98-0.6-2.88
					c-0.21-2.39-0.08-4.78,0.12-7.08c2.22-8.14,6.6-14.12,13.92-17.16c1.17-0.15,2.16-0.36,3.6-0.48c3.07,0.3,6.54,1.9,8.16,4.68
					c2.21,5.95,3.92,13.13,3.72,20.76c-0.17,0.79-0.19,1.81-0.12,2.52c-0.36,3.36-0.49,6.58-1.08,9.48c-0.6,2.94-2.02,5.21-3,7.56
					c-0.58,0.32-1.19-0.08-1.32,0.6c-0.5-0.45,0.53-1.37,0.84-1.8c5.37-10.64,5.31-31.35-1.08-40.8c-0.54-0.5-1.26-0.82-1.8-1.32
					c-0.87-0.09-1.31-0.61-2.4-0.48c-0.55-0.31-0.67-0.41-1.2-0.6c-0.42,0.04-1.1,0.1-1.56-0.12c-0.4,0.32-1.06,0.38-1.8,0.36
					c-2.78,1.06-5.33,2.35-6.96,4.56c-0.43,0.01-0.44,0.44-0.96,0.36c-1.3,2.1-2.83,3.97-4.08,6.12c-0.9,2.26-1.78,4.54-2.28,7.2
					c-0.2,5.9,1.23,10.29,3.72,14.16c5.3,8.25,12.3,14.63,16.8,23.16c0.29,0.189,0.44,0.52,0.72,0.72c2.44,4.681,5.04,9.2,6.36,15
					c0.67,1.25,0.83,3.01,1.32,4.44c-0.07,0.75,0.1,1.26,0.24,1.8c-0.05,0.92,0.03,1.729,0.24,2.4c1.86-0.9,2.84-2.061,4.66-3
					c0.08-0.36,1.5-0.511,1.38-1.061c0.73-0.439,0.84-0.979,1.64-1.34c0.29-1.91,1.12-3.28,1.32-5.28
					c1.39-4.779,3.84-9.74,3.48-15.479c-0.18-0.57-0.6,0.3-0.6-0.24c0.27-0.83,1.48-0.021,1.8,0.24c0.24,7.8-3.48,12.68-4.44,19.68
					c0.84-0.16,2.03-1,3.12-1.32c0.49,0.25,0.49,0.69,1.08,0.601c0,0.62-0.85,0.12-0.96,0.84c0.94,0.42,2.99,0.939,3.87,1.42
					c1.04-1.76,0.87-2.06,1.75-3.62c2.19-4.07,1.6-3.63,2.25-6c1.06,1.93,1.03,3.811,1,5.12c0.03,2.88-0.12,1.66,0.13,4.04
					c0.76,0.19,2.43-0.79,4-1.23c0.04-0.909-0.03-0.68,0.68-0.93c1.6,0.36,0.74,3.18,0.96,4.92C86.93,95.37,87.68,92.28,90.56,91.32
					z M59.12,139.92C59.1,140.85,59.4,139.53,59.12,139.92L59.12,139.92z M58.88,136.32c-0.1,0.239,0.1,0.75,0.24,0.359
					C58.92,136.68,59.05,136.35,58.88,136.32z M51.92,113.04C52.06,113.51,52.06,112.57,51.92,113.04L51.92,113.04z"/>
				<path fill="#FFFFFF" d="M72.68,109.32C72.82,108.85,72.82,109.79,72.68,109.32L72.68,109.32z"/>
				<path d="M63.8,36.48C63.94,36.01,63.94,36.95,63.8,36.48L63.8,36.48z"/>
				<path fill="#FFFFFF" d="M59.12,139.92C59.4,139.53,59.1,140.85,59.12,139.92L59.12,139.92z"/>
				<path fill="#FFFFFF" d="M59.12,136.68c-0.14,0.391-0.34-0.12-0.24-0.359C59.05,136.35,58.92,136.68,59.12,136.68z"/>
				<path fill="#FFFFFF" d="M51.92,113.04C52.06,112.57,52.06,113.51,51.92,113.04L51.92,113.04z"/>
				<path d="M21.08,115.44c0.14,0.02,0.13,0.189,0.12,0.359C20.95,115.73,20.95,115.61,21.08,115.44z"/>
				<path d="M20.6,115.08c0.21,0.03,0.27,0.21,0.24,0.479C20.68,115.48,20.62,115.3,20.6,115.08z"/>
				<path d="M20.24,114.72c0.15,0.05,0.25,0.15,0.24,0.36C20.33,115.03,20.23,114.93,20.24,114.72z"/>
				<path d="M6.44,80.76C6.58,80.29,6.58,81.23,6.44,80.76L6.44,80.76z"/>
			</g>
			<g>
			</g>
		</g>
	</g>
</g>
<g id="Layer_2">
	<circle fill="none" stroke="#000000" stroke-width="0.8092" stroke-miterlimit="10" cx="81.229" cy="79.707" r="75.229"/>
</g>
</svg>
